<?xml version="1.0" encoding="UTF-8"?>
<svg version="1.1" viewBox="0 0 4096 1545" xmlns="http://www.w3.org/2000/svg">
<path transform="translate(1929)" d="m0 0h2167v1545h-2166l-1-18-1-118v-76l1-151 2-5 39 1 4 1v322l229-1h1847v-1390l1-58h-2077v312l-3 2h-40l-1-1-1-15z"/>
<path transform="translate(163,420)" d="m0 0h12l13 4 16 2h20l10 3 7 4 16 6 11 7 13 12 9 7 7 7 13 17 10 18 3 9 4 19 3 6 2 16 1 32 2 35v195l-2 24-1 47-1 11-3 3h-2l-4 21-8 17-4 8-8 10-10 11-7 8-11 10-10 7-5 3 1 4 7 9 41 41 5 4 2 4-1 4-5 4-2 5-2 20-3 5-3 4-2 21-1 2-5-1-10-8-11-6-13-11-52-52-11-14-6-12-6-4-2-1-7 3-11-1-11-3-17-3h-18l-9-1-7-6-15-2-5-3-14-13-17-10-8-8-8-13-7-12-8-17-4-19-5-13-3-42-2-12h-2l-2 1v-248l2 1 3-14 5-42 3-10 5-18 10-21 6-10 7-11 10-10 14-9 11-9 9-6 15-4 7-4 4-1 35-2zm-7 77-10 3-11 6-13 12-7 9-2 11-2 16-5 24-1 16v253l2 22 5 21 2 18 3 7 14 15 14 9 5 2 6 1h25l8-2 6-4 10-3 9-8 4-6 4-9 3-5 1-4 2-31 1-8 1-41v-234l-3-29-1-19-4-11-6-11-8-8-16-8-9-3-7-1z"/>
<path transform="translate(1290,427)" d="m0 0h105l4 4 4 9 5 30 2 10 3 8 4 32 5 12 3 29 6 15 3 30 6 14 2 25 2 9 4 7 1 4 2 28 6 12 1 5 2 28 4 7 2 4 1 7 1 23 3 7 4 7 2 31 4 8 2 2 1 4 2 30 6 12 2 21 1 12 6 12 3 32 6 12 1 11 1 28-1 2-6 1h-81l-9-13-1-3-2-32-3-10-3-9-3-32-5-17-3-21-100-1-4 28-5 9-1 6-1 27-1 9-5 4-2 11v11l-1 16-3 8-8 9h-84l-7-2v-7l4-15 2-22 6-17 2-21 2-11 5-15 3-25 5-15 2-14 2-16 5-15 3-26 6-19 3-25 6-21 3-23 5-18 4-27 5-19 4-25 5-20 4-25 5-20 3-21 5-18 3-23 6-20 3-31 3-7zm52 153-4 5-4 44-4 10-1 2-4 43-2 6-2 3-5 50-4 5-1 4-2 32-2 12-4 11v2l3 1 13 1h54l9-1 2-1-2-12-2-11-2-28-6-24-3-31-3-13-2-8-2-17-2-24-4-7-3-24-2-24-3-5z"/>
<path transform="translate(2952,427)" d="m0 0h93l3 1v581l-1 1-13 1h-81l-2-4-1-20h-3l-16 9-10 7-13 7-9 2h-57l-11-6-10-6-13-12-10-11-8-16-5-14-4-18-3-7-2-19-1-49v-67l1-78 1-16 6-11 3-20 11-24 9-17 14-15 8-5 17-8 11-1h34l14 2 19 9 10 6 11 6 6 4v-148l1-40zm-56 227-5 3-7 8-3 9-3 8-3 5-1 4-1 37v175l2 18 9 18 9 6 9 5 4 1h9l10-3 5-3 20-4 1-2v-272l-5-4-17-7-9-2z"/>
<path transform="translate(3485,592)" d="m0 0h29l10 2 11 6 8 6 6 7 9 14 4 7 1 4 2 25 2 8 2 4 1 21v301l-2 8-6 5-13 1h-72l-2-4-1-11v-298l-2-12-5-11-3-11h-33l-12 2-12 7-7 6-1 2-1 40-1 288-1 1-22 1h-71l-2-2-1-4-1-25v-232l1-147 2-7h92l3 1v42l9-6 12-11 14-9 16-9 17-7 7-2z"/>
<path transform="translate(411,594)" d="m0 0h73l13 1 5 5 1 4 1 246 1 62 2 18 3 8 15 8 8 4 8-1 12-7 11-7 10-4 1-7-1-72v-96l1-149 1-11 2-2h22l72 1 1 1v413l-1 1-13 1h-81l-2-7-1-19v-14l-14 10-13 11-19 10-12 5-6 4-6 1h-53l-6-3-12-11-13-14-4-9-3-6-4-6-1-5v-349l1-14z"/>
<path transform="translate(2304,592)" d="m0 0h46l16 1 10 3 9 4 12 4 10 7 10 9 8 7 7 7 10 13 4 8 6 16 4 22 4 20 2 12 1 21v121l-2 26-3 4-3 19-2 16-6 15-3 9-9 11-9 10-9 9-11 9-9 7-8 2-10 1-4 5-9 2-62 1h-22l-4-4-3-4-11-1-12-6-12-11-25-25-5-7-4-17-5-9-2-18-2-15-4-17-2-19-1-31v-43l1-45 2-16 5-17 1-6 1-19 2-9 4-7 4-16 7-9 9-10 22-22 11-7 17-5 6-4 4-1zm18 62-7 3-10 7-6 7-3 7-2 10-4 5-1 8-1 25v173l2 15 3 3 5 17 3 5 17 11 4 1h11l11-4 10-6 3-4 5-14 3-9 1-210-1-13-6-16-5-10-9-7-7-3-5-1z"/>
<path transform="translate(3744,592)" d="m0 0h49l15 1 9 3 9 4 17 8 9 7 15 14 12 13 6 10 3 11 2 7 4 5 1 6 1 26 2 12 4 12 1 75v25l-1 42-2 10-3 9-2 38-4 4h-2l-3 19-8 11-11 12-13 13-12 9-7 4-16 4-6 5-7 1h-85l-5-6-15-2-6-3-11-11-12-8-8-8-11-16-8-17-4-12-4-22-4-21-1-10-1-24v-78l1-46 2-18 4-13 4-24 6-15 6-12 12-17 10-9 11-8 10-8 11-4 9-3 5-3 4-1zm18 62-10 4-10 6-4 5-4 13-3 5-1 5-1 28v184l2 15 5 11 3 8 4 4 15 8 5 1h11l10-5 9-7 4-6 5-16 4-10v-210l-10-26-7-8-10-7-8-2z"/>
<path transform="translate(1983,592)" d="m0 0h50l17 1 11 2 5 4 15 3 11 7 16 13 10 14 7 14 5 14 8 51 2 22v12l-1 1-47 1h-44l-4-1-1-4v-25l-1-43-5-8-7-8-9-6-4-1h-12l-16 8-5 5-3 10-5 6-1 10v218l2 9 8 14 6 5 18 9 10 1 6-3 11-10 5-7 2-42 1-41 1-1h93l2 4-1 31-2 13-3 9-2 13-1 19-2 8-4 8-4 13-8 10-3 4h-2l-2 4-13 12-11 7-8 3-9 1-6 5-14 2-34 1h-25l-20-1-7-2-4-3-13-4-11-7-12-7-12-12-14-28-7-17-1-4-1-16-5-11-2-9-1-16v-138l1-30 4-10 3-6 2-18 4-11 9-19 8-15 9-10 14-9 16-9 18-7 5-1z"/>
<path transform="translate(1666,592)" d="m0 0h49l21 1 10 3 4 3 17 3 6 4 13 12 11 11 8 11 3 8 2 12 5 4 1 3 2 49v33l-2 1-42 1h-43l-3-2v-65l-2-9-8-10-10-7-10-3h-10l-10 4-9 8-8 16-1 37v190l1 12 6 10 3 6 8 5 15 6h13l9-6 10-10 2-4 1-78 2-5h86l2 2v38l-2 47-3 7-4 9-3 9-9 17-9 10-9 8-15 8-20 7-9 3-9 1-34 1h-22l-27-1-6-7-8-1-16-8-10-8-7-7-6-8-7-13-8-14-4-10-2-16-5-10-2-11-1-23v-89l1-86 2-8 6-7 1-17 4-10 10-18 7-11 9-10 7-7 10-6 12-6 10-4 6-3 4-1z"/>
<path transform="translate(927,594)" d="m0 0h207l2 2v18l-1 41-2 8-6 15-3 9-5 10-4 9-4 8-10 26-4 10-4 8-8 17-10 25-3 9-5 10-9 19-10 26-13 28-8 19-6 21-2 9 115 1 2 3v29l-1 36-4 1h-213l-2-3v-68l8-12 4-9 5-11 12-32 8-16 6-13 12-31 13-27 12-31 9-19 7-16 13-33 4-13 2-14-73 1h-29l-4-1v-67z"/>
<path transform="translate(2697,593)" d="m0 0h36l1 2v73l-1 22-5 1-23-6-9-3-9 1-9 4-17 4-14 10-17 17-1 291-1 1-26 1-66 1-3-1-2-12v-375l1-29 1-1h92l3 1 1 2v57l6-2 8-14 9-12 8-9h2l2-4 12-10 12-6 5-3z"/>
<path transform="translate(3128,594)" d="m0 0h27l67 1 1 1v413l-1 1-23 1h-71l-2-3-1-7v-385l1-21z"/>
<path transform="translate(759,595)" d="m0 0h88l1 3-1 412-3 1h-81l-7-1-4-5-2-9-1-57v-277l1-55 2-9z"/>
<path transform="translate(3128,445)" d="m0 0 93 1 2 2v70l-1 12-9 1h-86l-2-7v-52l1-26z"/>
<path transform="translate(760,446)" d="m0 0h85l2 1v82l-3 2h-83l-7-1-3-5-1-7v-56l1-10 4-5z"/>
</svg>
